<svg xmlns="http://www.w3.org/2000/svg" width="40" height="40" viewBox="0 0 40 40">
  <path id="e0c8" d="M32.5,0H7.5A7.233,7.233,0,0,0,2.188,2.188,7.233,7.233,0,0,0,0,7.5v25a7.233,7.233,0,0,0,2.188,5.313A7.233,7.233,0,0,0,7.5,40h25A7.469,7.469,0,0,0,40,32.5V7.5a7.233,7.233,0,0,0-2.187-5.312A7.233,7.233,0,0,0,32.5,0Zm0,31.563a.934.934,0,0,1-.937.938H8.438a.934.934,0,0,1-.937-.937V8.438A.934.934,0,0,1,8.438,7.5H31.563a.934.934,0,0,1,.938.938ZM25,15h5V10H25Zm-8.516,1.484a4.905,4.905,0,0,0,0,7.031,4.905,4.905,0,0,0,7.031,0,4.905,4.905,0,0,0,0-7.031,4.905,4.905,0,0,0-7.031,0ZM27.422,20A7.469,7.469,0,0,1,20,27.422,7.469,7.469,0,0,1,12.578,20a6.722,6.722,0,0,1,.156-1.25H10V30H30V18.75H27.266A6.722,6.722,0,0,1,27.422,20ZM40,37.5" fill="#1a1a1a"/>
</svg>
