<svg xmlns="http://www.w3.org/2000/svg" width="40" height="40" viewBox="0 0 40 40">
  <path id="e0c9" d="M19.3,15.859a62.383,62.383,0,0,0-4.766-7.422A12.458,12.458,0,0,0,10,12.07a12.809,12.809,0,0,0-2.5,5.352A43.542,43.542,0,0,0,19.3,15.859ZM32.5,0H7.5A7.233,7.233,0,0,0,2.188,2.188,7.233,7.233,0,0,0,0,7.5v25a7.233,7.233,0,0,0,2.188,5.313A7.233,7.233,0,0,0,7.5,40h25A7.469,7.469,0,0,0,40,32.5V7.5a7.233,7.233,0,0,0-2.187-5.312A7.233,7.233,0,0,0,32.5,0ZM30.547,30.625A14.374,14.374,0,0,1,20,35,14.439,14.439,0,0,1,9.414,30.586,14.439,14.439,0,0,1,5,20,14.439,14.439,0,0,1,9.414,9.414,14.439,14.439,0,0,1,20,5,14.439,14.439,0,0,1,30.586,9.414,14.439,14.439,0,0,1,35,20,14.5,14.5,0,0,1,30.547,30.625ZM20.859,20.156A1.791,1.791,0,0,1,21.406,20q-.469-1.016-1.016-2.187a42.521,42.521,0,0,1-13.2,1.8V20a12.488,12.488,0,0,0,3.281,8.594,13.363,13.363,0,0,1,.9-1.328q.586-.781,1.914-2.266a17.294,17.294,0,0,1,3.32-2.812A16.4,16.4,0,0,1,20.859,20.156Zm1.875-3.2q.469.938.859,1.875l.313.625a25.813,25.813,0,0,1,8.906.469,12.574,12.574,0,0,0-2.891-7.969A16.054,16.054,0,0,1,22.734,16.953Zm-.547,5.156A20.152,20.152,0,0,0,18.4,23.867a18.985,18.985,0,0,0-2.812,1.992,14.939,14.939,0,0,0-1.875,1.992q-.82,1.055-1.094,1.484a8.542,8.542,0,0,0-.43.742A12.212,12.212,0,0,0,20,32.813,12.809,12.809,0,0,0,25,31.8a48.662,48.662,0,0,0-2.734-9.687Zm6.25-11.641A12.275,12.275,0,0,0,20,7.266a13.655,13.655,0,0,0-2.969.313,68.007,68.007,0,0,1,4.766,7.5Q26.484,13.281,28.438,10.469Zm-3.75,11.016a55.732,55.732,0,0,1,2.422,9.141,12.553,12.553,0,0,0,5.547-8.594A17.809,17.809,0,0,0,24.688,21.484ZM40,37.5" fill="#1a1a1a"/>
</svg>
