<svg xmlns="http://www.w3.org/2000/svg" width="40" height="40" viewBox="0 0 40 40">
  <path id="Exclusion_1" data-name="Exclusion 1" d="M32.5,40H7.5a7.263,7.263,0,0,1-5.312-2.187A7.261,7.261,0,0,1,0,32.5V7.5A7.26,7.26,0,0,1,2.188,2.188,7.26,7.26,0,0,1,7.5,0h25a7.261,7.261,0,0,1,5.313,2.188A7.263,7.263,0,0,1,40,7.5v25A7.467,7.467,0,0,1,32.5,40ZM20.048,21.725,15.515,33.8a14.583,14.583,0,0,0,4.094.6,13.851,13.851,0,0,0,4.752-.825.314.314,0,0,1-.073-.225ZM6.45,14.149A14.217,14.217,0,0,0,5.207,20a14.055,14.055,0,0,0,2.229,7.689,14.523,14.523,0,0,0,5.885,5.288ZM32.257,13.1h0a13.925,13.925,0,0,1,.074,1.5,13.647,13.647,0,0,1-1.1,5.1L26.847,32.452a14.006,14.006,0,0,0,5.227-5.214A14.469,14.469,0,0,0,32.257,13.1ZM12.371,11.9h0a.554.554,0,0,1,.585.563.572.572,0,0,1-.087.435.609.609,0,0,1-.425.2l-1.682.15,4.972,15.6L19.171,19.4,16.9,13.249l-1.337-.137-.125-.013a.525.525,0,0,1-.512-.3.634.634,0,0,1,.585-.9l3.8.225c.973,0,2.252-.076,3.8-.225a.589.589,0,0,1,.658.563.572.572,0,0,1-.087.435.609.609,0,0,1-.425.2l-1.682.15,4.972,14.777,1.462-4.8a20.666,20.666,0,0,0,1.1-4.65,6.6,6.6,0,0,0-.95-3.3A7.351,7.351,0,0,1,26.7,11.9a2.614,2.614,0,0,1,.694-1.763,2.29,2.29,0,0,1,1.791-.787h.147A13.972,13.972,0,0,0,19.609,5.6,14.08,14.08,0,0,0,12.7,7.361a14.522,14.522,0,0,0-5.154,4.763H8.5C9.519,12.124,10.822,12.048,12.371,11.9Z" fill="#1a1a1a"/>
</svg>
